<svg width="47" height="45" viewBox="0 0 47 45" fill="none" xmlns="http://www.w3.org/2000/svg">
<path d="M33.511 32.8865C31.0674 34.1882 29.9198 36.185 29.7818 39.0532C29.7073 40.5645 29.8348 41.5464 31.3116 42.065C32.3105 42.4069 33.2878 42.8261 34.2334 43.3004C34.7649 43.5652 35.211 44.0065 35.6997 44.3704C35.6042 44.536 35.5192 44.6905 35.4235 44.8559C34.9986 44.6242 34.5949 44.3044 34.1379 44.1941C33.5855 44.0616 32.9691 43.9844 32.4379 44.1168C31.9492 44.2382 31.5243 44.6464 31.0674 44.9331C30.9824 44.8227 30.8974 44.7236 30.8017 44.6133C31.0354 44.2272 31.2691 43.8521 31.5773 43.3445C30.8017 42.9143 30.058 42.4069 29.2611 42.065C28.2623 41.6346 27.8268 41.0059 27.9756 39.8475C28.0923 38.954 27.9968 38.0384 27.9968 36.88C26.0523 38.3582 24.2568 39.6599 22.5248 41.061C21.7386 41.7008 21.0799 41.7671 20.2299 41.2154C18.8168 40.3107 17.3399 39.5386 15.9162 38.6671C15.3424 38.3141 14.9174 38.281 14.3224 38.6892C10.9118 41.039 7.23558 42.8261 3.35748 44.1941C2.20999 44.6021 1.16874 44.8008 0 44.0065C1.43437 42.9474 2.84748 41.9105 4.50497 40.6858C3.01748 40.2888 1.82749 39.9688 0.297498 39.5608C0.956245 39.1966 1.29624 38.9981 1.63624 38.8215C16.288 31.2538 25.4574 19.2073 29.0379 2.62672C29.2399 1.7111 29.5586 1.2257 30.451 1.13745C30.9611 1.09331 31.4711 1.00507 31.9492 0.839603C34.8073 -0.197383 37.4635 -0.0208775 39.9286 1.99791C40.3323 2.32888 41.0867 2.4502 41.5966 2.31784C43.5624 1.82141 44.8692 2.97974 46.3885 4.08289C44.4017 4.56829 42.5742 5.00956 40.736 5.45082C37.8142 6.16788 36.5179 8.70517 37.6017 11.6065C38.2179 13.2502 38.8128 14.905 39.5354 16.4935C40.1623 17.8614 40.3216 19.2404 40.1941 20.7187C40.0241 22.6049 39.8861 24.5024 39.8861 26.3999C39.8861 27.5473 39.4929 28.3636 38.5898 28.9041C36.3054 30.272 35.3918 32.368 35.4343 35.0378C35.4555 36.0747 34.9028 37.5971 35.3705 38.0603C36.4011 39.0643 37.8779 39.627 39.2485 40.1894C40.0454 40.5205 40.8847 40.6308 41.1292 41.9877C40.2048 41.5795 39.461 41.0059 38.7066 40.9949C37.9949 40.9949 37.283 41.5905 36.5604 41.9325C36.4861 41.8443 36.4224 41.7561 36.3479 41.6677C36.5711 41.2816 36.8048 40.8956 37.1023 40.3882C36.4116 40.0019 35.753 39.5167 35.0198 39.2519C33.6598 38.7555 33.2986 37.8509 33.4793 36.4167C33.628 35.2694 33.511 34.0779 33.511 32.8865ZM34.8179 20.4758C34.1167 27.6245 29.7711 31.7503 24.0124 34.7618C24.3098 33.703 24.586 32.7321 24.9473 31.4414C22.748 32.9528 20.9205 34.2104 19.0824 35.4679C19.1143 35.5342 19.1462 35.6004 19.1674 35.6777C20.5593 34.9825 21.9511 34.2766 23.3537 33.5815C23.4174 33.6587 23.4705 33.7471 23.5342 33.8243C22.1743 35.0597 20.8143 36.2954 19.4543 37.5308C21.558 36.7696 23.5662 35.854 25.4787 34.7509C28.3368 33.1182 30.8229 30.9891 32.6292 28.121C34.0847 25.8043 34.9773 23.2889 34.8286 20.4758H34.8179Z" fill="#2C2C2C"/>
</svg>
