<svg width="93" height="21" viewBox="0 0 93 21" fill="none" xmlns="http://www.w3.org/2000/svg">
<g clip-path="url(#clip0_166_11)">
<path d="M64.6845 15.4C63.5974 15.9743 63.087 16.8552 63.0255 18.1206C62.9924 18.7873 63.0491 19.2205 63.7061 19.4492C64.1504 19.6001 64.5852 19.785 65.0058 19.9943C65.2422 20.1111 65.4407 20.3057 65.6581 20.4664C65.6155 20.5394 65.5777 20.6075 65.5352 20.6805C65.3461 20.5783 65.1665 20.4372 64.9633 20.3885C64.7175 20.3301 64.4434 20.296 64.2071 20.3544C63.9897 20.408 63.8006 20.588 63.5974 20.7146C63.5596 20.6659 63.5218 20.6221 63.4792 20.5734C63.5832 20.4031 63.6872 20.2376 63.8243 20.0137C63.4792 19.8239 63.1484 19.6001 62.7939 19.4492C62.3496 19.2594 62.1559 18.982 62.222 18.471C62.274 18.0768 62.2315 17.6728 62.2315 17.1618C61.3666 17.814 60.5678 18.3882 59.7974 19.0063C59.4477 19.2886 59.1546 19.3178 58.7765 19.0745C58.1479 18.6754 57.491 18.3347 56.8576 17.9502C56.6024 17.7945 56.4134 17.7799 56.1487 17.96C54.6315 18.9966 52.9962 19.785 51.2711 20.3885C50.7607 20.5686 50.2975 20.6562 49.7776 20.3057C50.4156 19.8385 51.0442 19.3811 51.7816 18.8408C51.1199 18.6656 50.5905 18.5245 49.9099 18.3444C50.203 18.1838 50.3542 18.0962 50.5054 18.0184C57.0231 14.6798 61.1019 9.36524 62.6947 2.05049C62.7845 1.64654 62.9263 1.43241 63.3233 1.39347C63.5501 1.374 63.777 1.33507 63.9897 1.26207C65.2611 0.804593 66.4427 0.882461 67.5392 1.77308C67.7188 1.91908 68.0543 1.97262 68.2812 1.91422C69.1556 1.69521 69.7369 2.20622 70.4128 2.6929C69.529 2.90704 68.716 3.10171 67.8984 3.29638C66.5986 3.61272 66.022 4.73208 66.5041 6.01204C66.7782 6.73719 67.0429 7.4672 67.3643 8.16802C67.6431 8.7715 67.714 9.37984 67.6573 10.032C67.5817 10.8642 67.5203 11.7013 67.5203 12.5384C67.5203 13.0445 67.3454 13.4047 66.9436 13.6431C65.9275 14.2466 65.521 15.1713 65.5399 16.3491C65.5494 16.8065 65.3036 17.4782 65.5116 17.6826C65.97 18.1254 66.627 18.3736 67.2367 18.6218C67.5912 18.7678 67.9645 18.8165 68.0732 19.4151C67.6621 19.2351 67.3312 18.982 66.9956 18.9771C66.679 18.9771 66.3623 19.2399 66.0409 19.3908C66.0078 19.3519 65.9795 19.3129 65.9464 19.274C66.0456 19.1037 66.1496 18.9333 66.282 18.7094C65.9747 18.5391 65.6817 18.325 65.3556 18.2082C64.7506 17.9892 64.5899 17.5901 64.6703 16.9574C64.7364 16.4513 64.6845 15.9257 64.6845 15.4ZM65.2658 9.92492C64.9539 13.0786 63.0208 14.8988 60.4591 16.2274C60.5915 15.7602 60.7143 15.3319 60.875 14.7625C59.8967 15.4292 59.0837 15.9841 58.2661 16.5389C58.2803 16.5681 58.2945 16.5973 58.3039 16.6313C58.9231 16.3247 59.5422 16.0133 60.1661 15.7066C60.1944 15.7407 60.2181 15.7796 60.2464 15.8137C59.6415 16.3588 59.0365 16.9039 58.4315 17.449C59.3673 17.1131 60.2606 16.7092 61.1113 16.2225C62.3827 15.5022 63.4887 14.563 64.2922 13.2976C64.9397 12.2756 65.3367 11.166 65.2705 9.92492H65.2658Z" fill="white"/>
<path d="M39.7387 15.5876C38.6461 16.1692 38.133 17.0614 38.0712 18.3429C38.038 19.0182 38.095 19.4569 38.7553 19.6886C39.2019 19.8414 39.6389 20.0287 40.0617 20.2406C40.2992 20.3589 40.4988 20.5561 40.7173 20.7187C40.6745 20.7927 40.6365 20.8617 40.5938 20.9356C40.4038 20.8321 40.2232 20.6892 40.019 20.6399C39.7719 20.5807 39.4964 20.5462 39.2589 20.6054C39.0403 20.6596 38.8503 20.842 38.6461 20.9701C38.608 20.9208 38.57 20.8765 38.5273 20.8272C38.6318 20.6547 38.7363 20.4871 38.8741 20.2603C38.5273 20.0681 38.1947 19.8414 37.8385 19.6886C37.3919 19.4963 37.1971 19.2154 37.2636 18.6978C37.3159 18.2986 37.2731 17.8895 37.2731 17.3719C36.4038 18.0324 35.6009 18.614 34.8266 19.24C34.475 19.5259 34.1805 19.5555 33.8005 19.309C33.1686 18.9048 32.5083 18.5598 31.8717 18.1704C31.6152 18.0127 31.4252 17.9979 31.1591 18.1803C29.6342 19.2302 27.9905 20.0287 26.2566 20.6399C25.7435 20.8222 25.2779 20.911 24.7554 20.5561C25.3967 20.0829 26.0285 19.6196 26.7696 19.0724C26.1045 18.895 25.5725 18.752 24.8884 18.5697C25.1829 18.407 25.3349 18.3183 25.487 18.2394C32.038 14.8581 36.1377 9.4756 37.7387 2.06726C37.829 1.65815 37.9715 1.44127 38.3705 1.40184C38.5985 1.38212 38.8266 1.34269 39.0403 1.26876C40.3183 0.805425 41.5059 0.884289 42.608 1.7863C42.7886 1.93418 43.1258 1.98839 43.3539 1.92925C44.2327 1.70744 44.817 2.22499 45.4964 2.71789C44.608 2.93477 43.7909 3.13193 42.9691 3.32909C41.6627 3.64948 41.0831 4.78316 41.5677 6.0795C41.8432 6.81392 42.1092 7.55328 42.4323 8.26306C42.7125 8.87426 42.7838 9.49039 42.7268 10.1509C42.6508 10.9937 42.589 11.8415 42.589 12.6893C42.589 13.202 42.4133 13.5667 42.0095 13.8082C40.9881 14.4194 40.5795 15.3559 40.5985 16.5488C40.608 17.0121 40.361 17.6923 40.57 17.8993C41.0308 18.3479 41.6912 18.5993 42.304 18.8506C42.6603 18.9985 43.0356 19.0478 43.1448 19.6541C42.7315 19.4717 42.399 19.2154 42.0617 19.2105C41.7434 19.2105 41.4251 19.4766 41.1021 19.6294C41.0688 19.59 41.0403 19.5506 41.0071 19.5111C41.1068 19.3386 41.2114 19.1661 41.3444 18.9394C41.0356 18.7668 40.7411 18.55 40.4133 18.4317C39.8052 18.2099 39.6437 17.8057 39.7244 17.1649C39.7909 16.6523 39.7387 16.1199 39.7387 15.5876ZM40.323 10.0424C40.0095 13.2365 38.0665 15.0799 35.4917 16.4255C35.6247 15.9524 35.7482 15.5186 35.9097 14.9419C34.9264 15.6172 34.1093 16.1791 33.2874 16.741C33.3017 16.7706 33.3159 16.8002 33.3254 16.8347C33.9477 16.5241 34.5701 16.2087 35.1971 15.8981C35.2256 15.9326 35.2494 15.9721 35.2779 16.0066C34.6698 16.5586 34.0617 17.1107 33.4537 17.6627C34.3943 17.3226 35.2921 16.9135 36.1472 16.4206C37.4252 15.6911 38.5368 14.7398 39.3444 13.4583C39.9952 12.4232 40.3943 11.2993 40.3278 10.0424H40.323Z" fill="white"/>
<path d="M14.9833 15.5876C13.8907 16.1692 13.3776 17.0614 13.3159 18.3429C13.2826 19.0182 13.3396 19.4569 13.9999 19.6886C14.4465 19.8414 14.8835 20.0287 15.3063 20.2406C15.5439 20.3589 15.7434 20.5561 15.9619 20.7187C15.9192 20.7927 15.8812 20.8617 15.8384 20.9356C15.6484 20.8321 15.4679 20.6892 15.2636 20.6399C15.0166 20.5807 14.741 20.5462 14.5035 20.6054C14.285 20.6596 14.095 20.842 13.8907 20.9701C13.8527 20.9208 13.8147 20.8765 13.7719 20.8272C13.8764 20.6547 13.9809 20.4871 14.1187 20.2603C13.7719 20.0681 13.4394 19.8414 13.0831 19.6886C12.6365 19.4963 12.4418 19.2154 12.5083 18.6978C12.5605 18.2986 12.5178 17.8895 12.5178 17.3719C11.6484 18.0324 10.8456 18.614 10.0712 19.24C9.71968 19.5259 9.42514 19.5555 9.04509 19.309C8.41327 18.9048 7.75294 18.5598 7.11636 18.1704C6.85983 18.0127 6.66981 17.9979 6.40377 18.1803C4.87884 19.2302 3.23514 20.0287 1.50118 20.6399C0.98812 20.8222 0.522563 20.911 0 20.5561C0.641328 20.0829 1.27315 19.6196 2.01424 19.0724C1.34916 18.895 0.817099 18.752 0.133016 18.5697C0.427552 18.407 0.57957 18.3183 0.731588 18.2394C7.28263 14.8581 11.3824 9.4756 12.9833 2.06726C13.0736 1.65815 13.2161 1.44127 13.6151 1.40184C13.8432 1.38212 14.0712 1.34269 14.285 1.26876C15.5629 0.805425 16.7505 0.884289 17.8527 1.7863C18.0332 1.93418 18.3705 1.98839 18.5985 1.92925C19.4774 1.70744 20.0617 2.22499 20.741 2.71789C19.8527 2.93477 19.0356 3.13193 18.2137 3.32909C16.9073 3.64948 16.3277 4.78316 16.8123 6.0795C17.0878 6.81392 17.3538 7.55328 17.6769 8.26306C17.9572 8.87426 18.0284 9.49039 17.9714 10.1509C17.8954 10.9937 17.8337 11.8415 17.8337 12.6893C17.8337 13.202 17.6579 13.5667 17.2541 13.8082C16.2327 14.4194 15.8242 15.3559 15.8432 16.5488C15.8527 17.0121 15.6056 17.6923 15.8147 17.8993C16.2755 18.3479 16.9358 18.5993 17.5486 18.8506C17.9049 18.9985 18.2802 19.0478 18.3895 19.6541C17.9762 19.4717 17.6436 19.2154 17.3063 19.2105C16.9881 19.2105 16.6698 19.4766 16.3467 19.6294C16.3135 19.59 16.285 19.5506 16.2517 19.5111C16.3515 19.3386 16.456 19.1661 16.589 18.9394C16.2802 18.7668 15.9857 18.55 15.6579 18.4317C15.0498 18.2099 14.8883 17.8057 14.9691 17.1649C15.0356 16.6523 14.9833 16.1199 14.9833 15.5876ZM15.5676 10.0424C15.2541 13.2365 13.3111 15.0799 10.7363 16.4255C10.8693 15.9524 10.9928 15.5186 11.1543 14.9419C10.171 15.6172 9.35388 16.1791 8.53203 16.741C8.54628 16.7706 8.56054 16.8002 8.57004 16.8347C9.19236 16.5241 9.81469 16.2087 10.4418 15.8981C10.4703 15.9326 10.494 15.9721 10.5225 16.0066C9.91445 16.5586 9.30638 17.1107 8.6983 17.6627C9.63892 17.3226 10.5368 16.9135 11.3919 16.4206C12.6698 15.6911 13.7814 14.7398 14.589 13.4583C15.2398 12.4232 15.6389 11.2993 15.5724 10.0424H15.5676Z" fill="white"/>
<path d="M92.9007 19.4054C92.5604 19.2691 92.2249 19.0307 91.8846 19.0307C91.5679 19.0307 91.2512 19.2837 90.9298 19.4249L90.8448 19.3032C90.944 19.1329 91.0385 18.9625 91.1614 18.7435C90.7644 18.5245 90.3769 18.286 89.9704 18.0914C89.6537 17.9405 89.5308 17.741 89.5497 17.3711C89.5828 16.7384 89.5592 16.1009 89.5592 15.4098C88.7652 16.0133 88.0326 16.5437 87.9759 17.741C87.9192 19.0501 87.8105 19.0501 88.9353 19.6585C89.1953 19.7996 89.5025 19.8531 89.7672 19.9845C90.0366 20.1159 90.2871 20.296 90.5423 20.4518C90.5139 20.5296 90.4808 20.6026 90.4525 20.6805C90.2918 20.627 90.0933 20.6172 89.9751 20.515C89.6065 20.2035 89.2803 20.2035 88.9117 20.515C88.7888 20.6172 88.6045 20.6367 88.3776 20.5832C88.4816 20.4177 88.5856 20.2473 88.7132 20.0429C88.3114 19.8191 87.9286 19.5757 87.5174 19.3859C87.1913 19.2351 87.0826 19.0209 87.1062 18.6608C87.1393 18.2179 87.1157 17.7702 87.1157 17.191C86.5911 17.5852 86.0759 17.8772 85.6789 18.2909C84.6911 19.3227 83.708 19.4638 82.6115 18.4904C81.8316 17.7994 81.1416 17.8918 80.22 18.4564C78.821 19.3129 77.2565 19.8872 75.7394 20.5248C75.4416 20.6513 75.0352 20.4956 74.6665 20.3349C75.2998 19.8726 75.9379 19.4103 76.6657 18.8798C76.0041 18.6997 75.4794 18.5586 74.7894 18.3736C75.3707 18.0719 75.7866 17.8626 76.1931 17.6388C80.1774 15.4682 83.2543 12.3388 85.4 8.25562C85.8018 7.49154 86.1184 6.66905 86.4115 5.85143C86.8085 4.73694 86.161 3.61759 85.0361 3.34991C84.6154 3.24771 84.1948 3.12117 83.7742 3.02384C83.3535 2.9265 82.9234 2.8535 82.4082 2.7513C83.0605 2.28409 83.5946 1.73901 84.4264 1.94828C85.1023 2.11862 85.5938 1.69034 86.0806 1.35454C86.662 0.955462 87.2291 0.877594 87.8908 1.07226C88.5619 1.26693 89.441 1.1696 89.8853 1.58814C90.3154 1.99208 90.2681 2.90704 90.5092 3.56892C91.1047 5.22362 91.7569 6.85886 92.3572 8.51356C92.4848 8.86397 92.5557 9.26304 92.5462 9.63778C92.5179 10.689 92.4564 11.7354 92.3619 12.7817C92.3383 13.0348 92.1965 13.3706 92.0027 13.4923C90.8211 14.2369 90.391 15.3124 90.3863 16.7043C90.3863 17.7604 90.2918 17.7702 91.2229 18.2617C91.5537 18.4369 91.9271 18.5245 92.2627 18.69C92.5226 18.8214 92.7542 19.0161 93 19.1815C92.9622 19.2497 92.9243 19.3227 92.8865 19.3908L92.9007 19.4054ZM83.259 17.5463C83.2684 17.5804 83.2826 17.6193 83.2921 17.6534C84.2799 17.1423 85.2913 16.6751 86.246 16.1106C87.6781 15.2638 88.855 14.1298 89.6017 12.5822C90.046 11.6624 90.2398 10.6939 90.1405 9.96386C89.8995 12.6844 87.7017 15.5412 85.4047 16.1593C85.5087 15.765 85.6127 15.3465 85.745 14.8452C84.7242 15.512 83.8309 16.1009 82.9376 16.6849L82.9707 16.7676C83.6749 16.4221 84.3791 16.0814 85.0834 15.7358C85.1117 15.765 85.1401 15.7942 85.1684 15.8186C84.5304 16.3929 83.897 16.9671 83.259 17.5414V17.5463Z" fill="white"/>
</g>
<defs>
<clipPath id="clip0_166_11">
<rect width="93" height="21" fill="white"/>
</clipPath>
</defs>
</svg>
